<svg width="40" height="40" viewBox="0 0 40 40" fill="none" xmlns="http://www.w3.org/2000/svg">
<g clip-path="url(#clip0_8_4)">
<path fill-rule="evenodd" clip-rule="evenodd" d="M30.0273 16.3538C30.1699 15.8887 30.0273 15.5469 29.3488 15.5469H27.1052C26.5347 15.5469 26.2718 15.8421 26.1292 16.1678C26.1292 16.1678 24.9882 18.8887 23.3719 20.6561C22.8489 21.1678 22.6113 21.3304 22.326 21.3304C22.1834 21.3304 21.977 21.1678 21.977 20.7027V16.3538C21.977 15.7956 21.8114 15.5469 21.336 15.5469H17.8103C17.4539 15.5469 17.2395 15.8059 17.2395 16.0515C17.2395 16.5806 18.0475 16.7026 18.1309 18.191V21.4237C18.1309 22.1324 18.0001 22.261 17.7148 22.261C16.9543 22.261 15.1043 19.5277 14.0068 16.4003C13.7918 15.7924 13.5761 15.5469 13.0027 15.5469H10.7591C10.1181 15.5469 9.98987 15.8421 9.98987 16.1678C9.98987 16.7492 10.7506 19.633 13.5315 23.447C15.3857 26.0514 17.9975 27.4635 20.3744 27.4635C21.8007 27.4635 21.977 27.1499 21.977 26.6098V24.6412C21.977 24.014 22.1121 23.8889 22.5635 23.8889C22.8965 23.8889 23.4669 24.0516 24.7981 25.3074C26.3193 26.7956 26.5699 27.4635 27.4257 27.4635H29.6693C30.3103 27.4635 30.6308 27.1499 30.4459 26.5311C30.2436 25.9142 29.5173 25.0195 28.5536 23.9586C28.0306 23.3539 27.2462 22.7027 27.0087 22.3772C26.6758 21.9585 26.7709 21.7726 27.0087 21.4006C27.0087 21.4006 29.742 17.6331 30.0273 16.3539V16.3538Z" fill="white"/>
</g>
<circle cx="20" cy="20" r="19.25" stroke="white" stroke-width="1.5"/>
<defs>
<clipPath id="clip0_8_4">
<rect width="21.25" height="16.25" fill="white" transform="translate(10 12.5)"/>
</clipPath>
</defs>
</svg>
